<?xml version="1.0" encoding="utf-8"?>
<!-- Generator: Adobe Illustrator 27.2.0, SVG Export Plug-In . SVG Version: 6.00 Build 0)  -->
<svg version="1.1" id="katman_1" xmlns="http://www.w3.org/2000/svg" xmlns:xlink="http://www.w3.org/1999/xlink" x="0px" y="0px"
	 viewBox="0 0 510.1 616" style="enable-background:new 0 0 510.1 616;" xml:space="preserve">
<style type="text/css">
	.st0{fill-rule:evenodd;clip-rule:evenodd;fill:#F7BA17;}
	.st1{fill-rule:evenodd;clip-rule:evenodd;fill:#547EBE;}
	.st2{fill-rule:evenodd;clip-rule:evenodd;fill:#E74636;}
	.st3{fill-rule:evenodd;clip-rule:evenodd;fill:#37AB56;}
</style>
<path class="st0" d="M176.6,381.5c0,47-0.1,93.9,0.1,140.9c0,6.5-2.6,10-7.1,12.8c-13.4,8.4-26.9,16.4-40.2,24.8
	c-11.6,7.3-23,15-34.6,22.5c-2.6,1.7-5.4,3.1-8.2,4.2c-7.4,2.7-13.6-3.3-13.5-13.2c0.1-20.9,0.6-41.8,0.7-62.6
	c0.2-73,0.3-146.1,0.1-219.1c0-7.7,2.5-12.1,8.1-15.4c11.2-6.7,22.4-13.4,33.6-20.2c12.8-7.8,25.4-15.7,38.1-23.5
	c2.8-1.7,5.5-3.5,8.4-5c6.6-3.3,14.4,2.6,14.5,10.8c0.1,17.8,0,35.5,0,53.2C176.6,321.6,176.6,351.5,176.6,381.5z"/>
<path class="st1" d="M430.5,191.7c0,13.1-0.1,26.2,0,39.4c0.1,5.7-1.5,9.8-6.5,12.5c-11,5.9-21.7,12.2-32.5,18.5
	c-13.4,7.8-26.7,16-40.2,23.5c-6.8,3.8-15.9,2.7-15.9-10.2c0.1-20.3-0.1-40.7,0.1-61c0-3.8-1-5.9-4-7.9
	c-18.9-12-37.6-24.3-56.4-36.4c-20.1-12.9-40.3-25.6-60.4-38.6c-14.6-9.5-29-19.2-43.4-28.9c-6.1-4.2-6-12.9,0.4-17
	C190.8,73.2,210,61,229.1,48.7c6.4-4.1,12.8-8,19.1-12.2c3.8-2.6,7.3-2.8,11.3-0.3c23.2,14.8,46.4,29.5,69.7,44.2
	c15.3,9.6,30.7,19,46,28.6c11.8,7.4,23.4,15.2,35.1,22.8c4.8,3.1,9.6,6,14.5,8.8c4.3,2.4,5.8,6.2,5.8,11.3
	C430.4,165.1,430.5,178.4,430.5,191.7C430.5,191.7,430.5,191.7,430.5,191.7z"/>
<path class="st2" d="M430.6,311.9c0,15-0.1,30,0.1,44.9c0,4.4-1.5,7.4-5,9.4c-10.5,6-21,12-31.4,18.1c-9.6,5.6-19.1,11.5-28.8,17
	c-10.1,5.8-20.3,11.4-30.3,17.2c-14.6,8.4-29.2,17-43.9,25.5c-11.9,6.9-23.6,14-35.7,20.4c-2.9,1.5-7.4,1.4-10.6,0.1
	c-7.3-3-14.2-7.3-21.4-11c-7.7-3.9-15.5-7.6-23.2-11.6c-4.2-2.1-8.6-4.1-12.4-7.1c-1.9-1.5-3.5-4.9-3.6-7.4
	c-0.7-32.5-1.3-65.1-1.6-97.6c-0.1-8,7.7-12.8,14-8.8c10.9,6.9,21.6,14.1,32.3,21.2c5,3.3,10,6.8,15.2,9.8c1.3,0.8,3.6,0.6,5-0.1
	c11-6.1,22-12.5,32.9-18.8c15.1-8.7,30.3-17.4,45.4-26.1c20.3-11.8,40.5-23.6,60.8-35.5c8.3-4.8,16.6-9.6,24.9-14.5
	c7.9-4.6,17.8-1.1,17.2,11.7c-0.7,14.4-0.1,28.8-0.1,43.3C430.5,311.9,430.5,311.9,430.6,311.9z"/>
<path class="st3" d="M244.2,162.2c-1,5.7-3.2,8.9-6.9,11.1c-13.3,7.8-26.6,15.5-39.8,23.4c-17.1,10.2-34.1,20.6-51.1,30.9
	c-18.6,11.2-37.2,22.6-55.9,33.6c-4.4,2.6-9.3,3.1-13.8-0.6c-4.6-3.8-3.2-9.6-3.4-14.3c-0.6-13.2-0.2-26.5-0.2-39.8
	c0-15.4,0-30.9,0.1-46.3c0-5.9,2.3-10.4,7-13.6c15.8-10.9,31.4-22,47.1-33c5.3-3.8,10.6-7.7,15.9-11.5c4.8-3.5,9.8-3.4,14.7-0.3
	c13,8.3,26,16.8,39,25.2c13.7,8.9,27.6,17.6,41.1,26.9C240.6,155.7,242.2,159.4,244.2,162.2z"/>
</svg>
