<?xml version="1.0" standalone="no"?>
<!DOCTYPE svg PUBLIC "-//W3C//DTD SVG 20010904//EN"
 "http://www.w3.org/TR/2001/REC-SVG-20010904/DTD/svg10.dtd">
<svg version="1.0" xmlns="http://www.w3.org/2000/svg"
 width="150.000000pt" height="47.000000pt" viewBox="0 0 150.000000 47.000000"
 preserveAspectRatio="xMidYMid meet">

<g transform="translate(0.000000,47.000000) scale(0.100000,-0.100000)"
fill="#000000" stroke="none">
<path d="M118 442 c-16 -9 -28 -19 -28 -23 0 -3 31 -27 69 -52 57 -38 70 -52
73 -76 l3 -30 33 20 c27 18 32 27 32 57 -1 35 -5 39 -71 80 -38 23 -73 42 -77
42 -4 0 -19 -8 -34 -18z"/>
<path d="M1143 384 c-7 -18 17 -38 31 -24 11 11 1 40 -14 40 -6 0 -13 -7 -17
-16z"/>
<path d="M446 365 c-42 -22 -55 -44 -56 -96 0 -63 40 -102 103 -102 54 0 95
24 73 42 -10 8 -16 9 -21 1 -3 -5 -24 -10 -45 -10 -30 0 -43 6 -59 26 -24 30
-26 43 -10 78 17 37 60 52 98 33 26 -13 32 -13 42 -1 9 11 5 17 -24 29 -46 19
-65 19 -101 0z"/>
<path d="M840 270 c0 -93 1 -100 20 -100 16 0 20 7 20 30 0 29 2 30 43 30 60
0 87 22 87 69 0 56 -22 71 -103 71 l-67 0 0 -100z m134 48 c18 -29 -4 -53 -53
-56 l-41 -3 0 41 0 41 41 -3 c27 -2 46 -9 53 -20z"/>
<path d="M1410 340 c0 -11 -7 -20 -15 -20 -8 0 -15 -4 -15 -10 0 -5 7 -10 15
-10 11 0 15 -13 15 -53 0 -61 11 -77 57 -77 24 0 31 4 27 14 -3 8 -12 12 -19
10 -19 -8 -37 31 -33 69 2 24 8 33 26 35 28 4 29 22 1 22 -12 0 -23 8 -26 20
-3 11 -12 20 -19 20 -8 0 -14 -9 -14 -20z"/>
<path d="M625 318 c-49 -29 -59 -78 -24 -122 16 -21 29 -26 64 -26 35 0 48 5
64 26 27 34 27 67 -1 98 -27 30 -74 41 -103 24z m69 -34 c22 -22 20 -60 -5
-77 -54 -38 -103 39 -51 81 21 16 37 15 56 -4z"/>
<path d="M1107 323 c-4 -3 -20 -6 -37 -5 l-30 1 0 -75 c0 -58 3 -74 14 -74 11
0 16 15 18 52 3 46 6 54 31 66 15 7 27 17 27 22 0 12 -16 21 -23 13z"/>
<path d="M1287 324 c-4 -4 -20 -7 -37 -6 l-30 1 0 -75 c0 -59 3 -74 15 -74 11
0 15 12 15 49 0 66 30 97 69 72 8 -5 16 -32 19 -65 3 -39 9 -56 18 -56 18 0
19 109 2 133 -15 18 -60 32 -71 21z"/>
<path d="M1140 245 c0 -68 2 -75 20 -75 18 0 20 7 20 75 0 68 -2 75 -20 75
-18 0 -20 -7 -20 -75z"/>
<path d="M216 238 c-57 -34 -72 -39 -87 -30 -28 18 -30 16 -27 -35 3 -41 7
-49 29 -57 22 -7 38 -2 97 34 72 42 72 42 72 86 0 24 -3 44 -7 43 -5 0 -39
-19 -77 -41z"/>
<path d="M407 114 c7 -3 9 -12 6 -20 -3 -8 0 -14 6 -14 18 0 13 -18 -6 -23
-16 -4 -16 -5 -1 -6 21 -1 34 17 20 31 -6 6 -8 17 -5 24 3 9 -2 14 -13 13 -11
0 -14 -3 -7 -5z"/>
<path d="M450 85 c0 -30 3 -35 23 -34 16 1 18 2 5 6 -23 6 -25 53 -3 53 9 0
20 -10 25 -22 5 -14 9 -17 9 -7 1 20 -19 39 -41 39 -14 0 -18 -8 -18 -35z"/>
<path d="M547 113 c-4 -3 -7 -20 -6 -37 0 -17 3 -25 6 -18 2 6 11 12 18 12 8
0 16 4 19 9 4 5 -3 7 -14 4 -14 -4 -20 0 -20 12 0 12 6 16 20 12 11 -3 18 -1
14 4 -6 11 -28 12 -37 2z"/>
<path d="M917 112 c6 -4 13 -21 16 -37 l4 -30 2 32 c0 17 7 34 14 36 6 3 -1 6
-18 6 -16 0 -25 -3 -18 -7z"/>
<path d="M1062 85 c0 -23 3 -30 5 -17 2 12 11 22 18 22 7 0 16 -10 18 -22 l4
-23 2 23 c0 13 -6 25 -16 29 -10 4 -21 11 -25 17 -4 6 -7 -7 -6 -29z"/>
<path d="M1242 90 c0 -19 2 -27 5 -17 2 9 2 25 0 35 -3 9 -5 1 -5 -18z"/>
<path d="M718 105 c-7 -7 3 -55 11 -55 4 0 6 13 3 30 -4 32 -5 33 -14 25z"/>
<path d="M601 73 c1 -22 2 -23 6 -8 3 11 10 23 17 27 7 5 5 8 -6 8 -13 0 -18
-7 -17 -27z"/>
<path d="M660 91 c0 -5 9 -7 20 -4 11 3 20 7 20 9 0 2 -9 4 -20 4 -11 0 -20
-4 -20 -9z"/>
<path d="M752 75 c0 -16 2 -22 5 -12 2 9 2 23 0 30 -3 6 -5 -1 -5 -18z"/>
<path d="M771 73 c2 -23 2 -24 6 -5 5 27 30 29 36 2 4 -17 4 -16 3 2 -1 16 -8
24 -23 26 -20 3 -23 -1 -22 -25z"/>
<path d="M833 85 c-3 -9 -3 -19 1 -22 3 -4 6 1 6 10 0 10 7 17 15 17 18 0 21
-47 3 -53 -8 -2 -7 -3 2 -3 9 1 16 13 18 34 3 27 0 32 -18 32 -11 0 -23 -7
-27 -15z"/>
<path d="M978 93 c7 -3 16 -2 19 1 4 3 -2 6 -13 5 -11 0 -14 -3 -6 -6z"/>
<path d="M1014 85 c-8 -19 4 -35 24 -34 15 1 15 2 0 6 -10 2 -18 11 -18 18 0
7 8 16 18 18 16 4 16 5 -1 6 -10 0 -20 -6 -23 -14z"/>
<path d="M1121 73 c2 -23 2 -24 6 -5 5 27 30 29 36 2 4 -17 4 -16 3 2 -1 16
-8 24 -23 26 -20 3 -23 -1 -22 -25z"/>
<path d="M1184 85 c-4 -9 -2 -21 4 -27 15 -15 44 -1 40 19 -4 23 -36 29 -44 8z
m36 -10 c0 -8 -7 -15 -15 -15 -8 0 -15 7 -15 15 0 8 7 15 15 15 8 0 15 -7 15
-15z"/>
<path d="M1268 93 c6 -2 18 -2 25 0 6 3 1 5 -13 5 -14 0 -19 -2 -12 -5z"/>
<path d="M1311 86 c-8 -10 -9 -16 -1 -21 5 -3 10 1 10 9 0 9 7 16 15 16 18 0
21 -47 3 -53 -8 -2 -7 -3 2 -3 9 1 16 13 18 34 3 26 0 32 -16 32 -11 0 -25 -6
-31 -14z"/>
<path d="M1410 93 c8 -3 19 -11 23 -17 6 -7 7 -6 4 4 -2 8 -12 16 -23 17 -13
2 -15 1 -4 -4z"/>
<path d="M1458 93 c7 -3 16 -2 19 1 4 3 -2 6 -13 5 -11 0 -14 -3 -6 -6z"/>
<path d="M963 70 c2 -8 12 -16 23 -17 13 -2 15 -1 4 4 -8 3 -19 11 -23 17 -6
7 -7 6 -4 -4z"/>
<path d="M1267 59 c7 -7 15 -10 18 -7 3 3 -2 9 -12 12 -14 6 -15 5 -6 -5z"/>
<path d="M1408 53 c7 -3 16 -2 19 1 4 3 -2 6 -13 5 -11 0 -14 -3 -6 -6z"/>
<path d="M1458 53 c7 -3 16 -2 19 1 4 3 -2 6 -13 5 -11 0 -14 -3 -6 -6z"/>
</g>
</svg>
